<svg width="10" height="3" viewBox="0 0 10 3" fill="none" xmlns="http://www.w3.org/2000/svg">
<path d="M0.87429 2.07457C0.678741 2.07457 0.509706 2.00497 0.367188 1.86577C0.227983 1.72325 0.158381 1.55421 0.158381 1.35866C0.158381 1.1598 0.227983 0.990767 0.367188 0.851562C0.509706 0.712358 0.678741 0.642756 0.87429 0.642756C1.07315 0.642756 1.24219 0.712358 1.38139 0.851562C1.5206 0.990767 1.5902 1.1598 1.5902 1.35866C1.5902 1.48793 1.55705 1.60724 1.49077 1.71662C1.42779 1.82599 1.34162 1.91383 1.23224 1.98011C1.12618 2.04309 1.00687 2.07457 0.87429 2.07457ZM4.63406 2.07457C4.43851 2.07457 4.26947 2.00497 4.12695 1.86577C3.98775 1.72325 3.91815 1.55421 3.91815 1.35866C3.91815 1.1598 3.98775 0.990767 4.12695 0.851562C4.26947 0.712358 4.43851 0.642756 4.63406 0.642756C4.83292 0.642756 5.00195 0.712358 5.14116 0.851562C5.28036 0.990767 5.34996 1.1598 5.34996 1.35866C5.34996 1.48793 5.31682 1.60724 5.25053 1.71662C5.18756 1.82599 5.10139 1.91383 4.99201 1.98011C4.88595 2.04309 4.76663 2.07457 4.63406 2.07457ZM8.39382 2.07457C8.19827 2.07457 8.02924 2.00497 7.88672 1.86577C7.74751 1.72325 7.67791 1.55421 7.67791 1.35866C7.67791 1.1598 7.74751 0.990767 7.88672 0.851562C8.02924 0.712358 8.19827 0.642756 8.39382 0.642756C8.59268 0.642756 8.76172 0.712358 8.90092 0.851562C9.04013 0.990767 9.10973 1.1598 9.10973 1.35866C9.10973 1.48793 9.07659 1.60724 9.0103 1.71662C8.94732 1.82599 8.86115 1.91383 8.75178 1.98011C8.64572 2.04309 8.5264 2.07457 8.39382 2.07457Z" fill="#2E2E30"/>
</svg>
