<svg width="22" height="20" viewBox="0 0 22 20" fill="none" xmlns="http://www.w3.org/2000/svg">
<path d="M15.5007 4.77832L5.90039 8.65687M15.5007 15.1214L5.90039 11.2429" stroke="#2E2E30" stroke-width="1.62" stroke-linecap="round"/>
<path fill-rule="evenodd" clip-rule="evenodd" d="M3.50031 12.5351C3.81937 12.5417 4.13646 12.4798 4.43304 12.3528C4.72961 12.2259 4.99971 12.0365 5.22754 11.7957C5.45537 11.555 5.63635 11.2677 5.7599 10.9507C5.88345 10.6337 5.94708 10.2933 5.94708 9.94952C5.94708 9.60571 5.88345 9.26534 5.7599 8.94834C5.63635 8.63134 5.45537 8.34406 5.22754 8.10331C4.99971 7.86256 4.72961 7.67318 4.43304 7.54623C4.13646 7.41929 3.81937 7.35733 3.50031 7.36399C2.87188 7.3771 2.27329 7.65527 1.83316 8.13872C1.39303 8.62218 1.14648 9.27234 1.14648 9.94952C1.14648 10.6267 1.39303 11.2769 1.83316 11.7603C2.27329 12.2438 2.87188 12.522 3.50031 12.5351ZM17.9003 6.07049C18.2194 6.07715 18.5365 6.01519 18.833 5.88824C19.1296 5.7613 19.3997 5.57191 19.6275 5.33116C19.8554 5.09041 20.0364 4.80314 20.1599 4.48613C20.2834 4.16913 20.3471 3.82877 20.3471 3.48495C20.3471 3.14113 20.2834 2.80077 20.1599 2.48377C20.0364 2.16676 19.8554 1.87949 19.6275 1.63874C19.3997 1.39799 19.1296 1.2086 18.833 1.08166C18.5365 0.954709 18.2194 0.892753 17.9003 0.899411C17.2719 0.912523 16.6733 1.19069 16.2332 1.67414C15.793 2.1576 15.5465 2.80777 15.5465 3.48495C15.5465 4.16213 15.793 4.8123 16.2332 5.29576C16.6733 5.77921 17.2719 6.05738 17.9003 6.07049ZM17.9003 18.9996C18.2194 19.0063 18.5365 18.9443 18.833 18.8174C19.1296 18.6904 19.3997 18.5011 19.6275 18.2603C19.8554 18.0196 20.0364 17.7323 20.1599 17.4153C20.2834 17.0983 20.3471 16.7579 20.3471 16.4141C20.3471 16.0703 20.2834 15.7299 20.1599 15.4129C20.0364 15.0959 19.8554 14.8086 19.6275 14.5679C19.3997 14.3271 19.1296 14.1378 18.833 14.0108C18.5365 13.8839 18.2194 13.8219 17.9003 13.8286C17.2719 13.8417 16.6733 14.1198 16.2332 14.6033C15.793 15.0867 15.5465 15.7369 15.5465 16.4141C15.5465 17.0913 15.793 17.7414 16.2332 18.2249C16.6733 18.7084 17.2719 18.9865 17.9003 18.9996Z" stroke="#2E2E30" stroke-width="1.62"/>
</svg>
